<?xml version="1.0" encoding="utf-8"?>
<!-- Generator: Adobe Illustrator 17.0.0, SVG Export Plug-In . SVG Version: 6.00 Build 0)  -->
<!DOCTYPE svg PUBLIC "-//W3C//DTD SVG 1.1//EN" "http://www.w3.org/Graphics/SVG/1.1/DTD/svg11.dtd">
<svg version="1.1" id="Layer_1" xmlns="http://www.w3.org/2000/svg" xmlns:xlink="http://www.w3.org/1999/xlink" x="0px" y="0px"
	 width="258.95px" height="258.95px" viewBox="0 0 258.95 258.95" enable-background="new 0 0 258.95 258.95" xml:space="preserve">
<rect x="0" y="0" fill="#F79520" width="258.95" height="258.95"/>
<g>
	<path fill="#F8B361" d="M160.533,190.93c-1.507,0-2.947-0.508-4.643-1.269c-1.19-0.535-2.33-1.159-3.537-1.819
		c-0.458-0.25-0.914-0.501-1.374-0.745c-4.301-2.292-8.598-4.585-12.89-6.886c-0.573-0.308-1.119-0.457-1.666-0.457
		c-1.157,0-1.993,0.681-2.522,1.194c-1.176,1.141-2.585,1.743-4.07,1.743c-1.503,0-2.984-0.646-4.169-1.82
		c-0.493-0.489-1.275-1.137-2.38-1.137c-0.515,0-1.024,0.139-1.56,0.425l-1.256,0.671c-4.01,2.144-8.02,4.287-12.04,6.413
		c-0.505,0.267-1.008,0.545-1.512,0.823c-2.572,1.421-5.002,2.763-7.847,2.763c-0.468,0-0.512,0.05-0.986-0.023l-0.563,0.156
		c0.044,0.104-0.135,0.346-0.11,0.413c0.079,0.219,0.189,0.519,0.463,0.797c4.675,4.774,8.802,8.762,14.601,8.762
		c2.057,0,4.191-0.311,6.344-0.926c3.938-1.123,7.615-1.669,11.241-1.669c3.431,0,6.843,0.516,10.139,1.533
		c2.242,0.692,4.49,1.042,6.684,1.042c4.042,0,7.382-2.093,11.139-4.423c1.964-1.219,3.499-2.661,4.693-4.41l-0.858-1.288
		C161.414,190.885,160.982,190.93,160.533,190.93z"/>
	<path fill="#F8B361" d="M104.068,167.079h0.056c6.323,0,11.491-5.163,11.521-11.509c0.032-6.271-4.925-11.335-11.285-11.528
		l-0.341-0.005c-2.989,0-5.83,1.211-7.999,3.411c-2.174,2.203-3.448,5.193-3.409,7.997
		C92.699,161.83,97.837,167.049,104.068,167.079z"/>
	<path fill="#F8B361" d="M155.314,167.078l0.118,0.001c6.168,0,11.355-5.126,11.56-11.428c0.092-2.815-1.165-5.85-3.36-8.118
		c-2.19-2.262-5.064-3.508-8.192-3.508h-0.002c-6.375,0.057-11.408,5.041-11.458,11.346
		C143.927,161.869,148.905,167.012,155.314,167.078z"/>
	<path fill="#F8B361" d="M236.822,98.511c-1.379-2.146-3.496-3.328-5.961-3.328c-0.648,0-1.321,0.081-2.001,0.242
		c-5.119,1.21-9.391,2.319-13.597,3.797c-5.345,1.877-10.712,3.944-15.9,5.943c-1.827,0.704-3.655,1.406-5.485,2.104
		c-1.3-7.164-5-26.346-10.063-42.404l-0.554-1.767c-3.426-10.947-6.967-22.269-19.179-28.228c-3.677-1.795-7.285-2.705-10.728-2.705
		c-8.607,0-14.581,5.534-18.825,10.356c-0.36,0.41-1.457,1.657-4.264,1.657c-2.691,0-5.13-1.133-5.634-1.551
		c-0.347-0.347-0.717-0.794-1.134-1.284c-2.818-3.309-8.064-9.469-17.938-9.469c-12.275,0-21.769,8.229-26.049,22.577
		c-2.199,7.373-5.922,23.18-8.82,35.88c-0.342,1.363-0.692,2.751-1.03,4.101l-1.754,6.999c-0.435,1.731-0.84,3.47-1.261,5.276
		l-0.21,0.899c-0.057-0.019-0.112-0.039-0.168-0.058c-1.246-0.43-2.413-0.832-3.562-1.282c-1.676-0.659-3.343-1.343-5.009-2.029
		c-3.152-1.295-6.41-2.635-9.703-3.773c-1.27-0.439-2.534-0.908-3.797-1.378c-4.396-1.633-8.943-3.323-13.883-3.761
		c-0.372-0.033-0.737-0.049-1.094-0.049c-3.819,0-6.553,1.872-6.966,4.771c-0.242,1.708-0.386,4.272,0.309,6.793
		c3.997,14.531,12.527,26.787,21.15,37.866c1.097,1.409,2.276,2.765,3.417,4.075c0.897,1.032,1.796,2.063,2.659,3.127
		c0.22,0.269,0.357,0.666,0.352,0.803c-0.879,9.893,2.602,18.29,10.345,24.956c1.81,1.559,3.771,2.944,5.665,4.284
		c1.128,0.797,2.256,1.594,3.354,2.428c0.886,0.674,1.17,1.144,1.261,1.364c2.785,6.774,6.517,13.103,11.091,18.81
		c3.68,4.589,7.949,8.677,12.688,12.15c9.1,6.666,19.023,10.547,29.495,11.534c1.957,0.184,3.924,0.278,5.845,0.278
		c10.369,0,20.246-2.703,29.358-8.032c9.161-5.36,16.653-12.503,22.267-21.232c2.056-3.198,3.784-6.631,5.455-9.951
		c0.52-1.034,1.041-2.067,1.571-3.095c0.503-0.973,1.02-1.559,1.786-2.02c5.043-3.041,9.137-6.414,12.519-10.311
		c4.988-5.751,7.16-12.587,6.64-20.9c-0.024-0.38,0.165-0.918,0.338-1.11c7.123-7.932,13.335-16.352,18.459-25.025
		c2.817-4.769,6.31-11.17,8.321-18.404c0.055-0.202,0.139-0.395,0.218-0.59l0.162-0.405l0.108-0.588v-7.447L236.822,98.511z
		 M81.131,96.87c2.954-13.045,7.2-31.315,9.521-39.097c1.943-6.512,6.106-14.273,14.907-14.273c4.18,0,6.402,2.23,9.085,5.381
		c0.643,0.755,1.227,1.428,1.765,1.966c2.918,2.919,8.616,4.958,13.857,4.958c5.276,0,9.769-1.938,12.994-5.603
		c4.006-4.553,6.93-6.41,10.095-6.41c1.66,0,3.553,0.513,5.629,1.526c7.351,3.588,9.687,10.082,13.181,21.251l0.562,1.79
		c3.127,9.921,5.759,21.348,7.564,30.029c-5.835-0.605-33.444-4.975-51.38-4.975C108.169,93.413,84.549,96.481,81.131,96.87z
		 M170.754,114.763c-13.606,3.976-27.337,5.988-40.918,5.988c-13.577,0-27.334-2.011-40.995-5.984
		c13.634-1.585,27.381-2.387,40.968-2.387C143.384,112.381,157.125,113.181,170.754,114.763z M196.843,160.44
		c-0.932,2.808-2.625,5.174-4.316,6.868c-3.205,3.207-6.91,5.884-11.014,7.957c-1.406,0.71-2.331,1.768-2.911,3.33
		c-3.302,8.909-8.156,16.607-14.429,22.88c-8.153,8.153-17.497,13.022-27.774,14.474c-2.277,0.322-4.557,0.485-6.774,0.485
		c-8.095,0-15.889-2.168-23.164-6.443c-10.246-6.021-17.948-14.758-23.549-26.712c-0.301-0.642-0.543-1.354-0.802-2.109
		c-0.519-1.518-1.055-3.09-2.158-4.37c-1.018-1.182-2.363-1.873-3.664-2.541c-0.807-0.414-1.534-0.85-2.176-1.277
		c-2.852-1.898-8.033-6.899-8.033-6.899s-3.845-3.27-3.915-10.075c-0.019-0.959,0.275-2.155,0.871-3.554
		c0.17-0.397,0.88-2.401,2.314-3.078c1.434-0.677,2.658-0.879,3.581-0.282c1.327,0.856,2.664,1.592,4.212,2.446
		c0.626,0.344,1.28,0.704,1.97,1.093c0,0,1.051,0.882,2.02,0.144c0.969-0.739,0.763-1.887,0.763-1.887
		c0.233-5.231-0.217-6.489,3.991-17.156c0.093-0.236,0.667-0.511,0.856-0.409c0.863,0.468,1.711,0.904,2.633,1.26l0.983,0.382
		c3.212,1.245,6.532,2.532,9.916,3.513c10.558,3.059,21.724,4.61,33.188,4.61c5.159,0,10.498-0.314,15.864-0.931
		c8.743-1.006,16.972-2.969,24.457-5.832c2.041-0.781,3.983-1.794,5.858-2.774l0.895-0.465c0.454-0.236,0.802-0.054,1.036,0.292
		c2.728,4.017,4.021,6.496,4.42,10.384c0.4,3.888,0.262,7.782,0.262,7.782s-0.003,1.244,0.61,1.612
		c0.613,0.368,1.886-0.053,1.886-0.053l1.889-1.118c1.725-1.018,3.323-1.961,4.883-2.964c0.865-0.556,1.905-1.127,2.923-1.127
		c1.017,0,2.018,0.58,2.289,0.945c0.726,0.976,1.093,2.246,1.129,3.554C197.927,154.499,197.757,157.688,196.843,160.44z"/>
</g>
</svg>
