<?xml version="1.0" encoding="utf-8"?>
<!-- Generator: Adobe Illustrator 17.0.0, SVG Export Plug-In . SVG Version: 6.00 Build 0)  -->
<!DOCTYPE svg PUBLIC "-//W3C//DTD SVG 1.1//EN" "http://www.w3.org/Graphics/SVG/1.1/DTD/svg11.dtd">
<svg version="1.1" id="Capa_1" xmlns="http://www.w3.org/2000/svg" xmlns:xlink="http://www.w3.org/1999/xlink" x="0px" y="0px"
	 width="841.89px" height="460.559px" viewBox="0 364.995 841.89 460.559" enable-background="new 0 364.995 841.89 460.559"
	 xml:space="preserve">
<g>
	<g>
		<path fill="#FFFFFF" d="M804.859,470.748c-22.735-24.63-55.116-38.236-91.113-38.236h-86.635v-46.848
			c0-11.368-9.301-20.668-20.668-20.668H193.766c-11.368,0-20.668,9.301-20.668,20.668v71.995H92.663
			c-11.368,0-20.668,9.301-20.668,20.668s9.301,20.668,20.668,20.668h100.586c0.172,0,0.344,0,0.517,0c0,0,0,0,0.172,0
			c11.368,0,20.668-9.301,20.668-20.668v-71.995h371.341v46.848v277.128H391.32c-0.861,0-1.722,0-2.584,0.172
			c-10.334-25.491-35.308-43.576-64.416-43.576c-29.28,0-54.254,18.257-64.416,43.92c-1.55-0.344-2.928-0.517-4.478-0.517h-40.82
			v-72.167c0-11.368-9.301-20.668-20.668-20.668c-0.344,0-0.689,0-1.033,0s-0.517,0-0.861,0h-99.38
			c-11.368,0-20.668,9.301-20.668,20.668c0,11.368,9.301,20.668,20.668,20.668h80.434v71.995c0,11.368,9.301,20.668,20.668,20.668
			h61.488c0.517,0,0.861,0,1.378,0c6.889,31.003,34.619,54.082,67.689,54.082s60.627-23.08,67.689-54.082h214.606h33.069
			c7.062,30.83,34.62,54.082,67.689,54.082c33.069,0,60.627-23.08,67.689-54.082h46.159c11.368,0,20.668-9.301,20.668-20.668
			V579.085C841.89,534.476,828.972,496.928,804.859,470.748z M324.321,784.39c-15.501,0-28.074-12.573-28.074-28.074
			c0-15.501,12.573-28.074,28.074-28.074s28.074,12.573,28.074,28.074S339.822,784.39,324.321,784.39z M707.374,784.39
			c-15.501,0-28.074-12.573-28.074-28.074c0-15.501,12.573-28.074,28.074-28.074c15.501,0,28.074,12.573,28.074,28.074
			C735.276,771.817,722.703,784.39,707.374,784.39z M800.553,730.308h-28.936c-10.334-25.319-35.308-43.404-64.244-43.404
			c-28.936,0-53.91,17.913-64.244,43.404h-15.846v-256.46h86.635c54.254,0,86.635,39.442,86.635,105.409V730.308z"/>
		<path fill="#FFFFFF" d="M354.979,606.987c-8.095,8.095-8.095,21.185,0,29.28c3.961,3.961,9.301,6.028,14.64,6.028
			s10.506-2.067,14.64-6.028l53.221-53.221l0.172-0.172c0.344-0.517,0.861-0.861,1.206-1.378c0.172-0.344,0.344-0.517,0.517-0.861
			c0.172-0.344,0.344-0.517,0.689-0.861c0.172-0.344,0.344-0.689,0.517-1.033c0.172-0.344,0.344-0.517,0.517-0.861
			c0.172-0.344,0.345-0.689,0.517-1.033c0.172-0.344,0.344-0.517,0.344-0.861c0.172-0.344,0.172-0.689,0.345-1.033
			s0.172-0.689,0.344-0.861c0.172-0.344,0.172-0.689,0.172-1.033s0.172-0.689,0.172-1.033s0.172-0.689,0.172-1.206
			c0-0.344,0.172-0.517,0.172-0.861c0.172-1.378,0.172-2.756,0-4.134c0-0.344,0-0.517-0.172-0.861c0-0.344-0.172-0.689-0.172-1.206
			c0-0.344-0.172-0.689-0.172-1.033s-0.172-0.689-0.172-1.033c-0.172-0.344-0.172-0.689-0.344-0.861
			c-0.172-0.344-0.172-0.689-0.345-1.033c-0.172-0.344-0.344-0.517-0.344-0.861c-0.172-0.344-0.344-0.689-0.517-1.033
			c-0.172-0.344-0.344-0.517-0.517-0.861c-0.172-0.344-0.344-0.689-0.517-1.033s-0.344-0.517-0.689-0.861
			c-0.172-0.344-0.344-0.517-0.517-0.861c-0.344-0.517-0.861-0.861-1.206-1.378l-0.172-0.172l-50.637-50.637
			c-8.095-8.095-21.185-8.095-29.28,0c-8.095,8.095-8.095,21.185,0,29.28l15.329,15.329H20.668C9.301,546.704,0,556.005,0,567.373
			c0,11.368,9.301,20.668,20.668,20.668h352.051L354.979,606.987z"/>
	</g>
</g>
</svg>
