<?xml version="1.0" encoding="utf-8"?>
<!-- Generator: Adobe Illustrator 17.0.0, SVG Export Plug-In . SVG Version: 6.00 Build 0)  -->
<!DOCTYPE svg PUBLIC "-//W3C//DTD SVG 1.1//EN" "http://www.w3.org/Graphics/SVG/1.1/DTD/svg11.dtd">
<svg version="1.1" id="Layer_1" xmlns="http://www.w3.org/2000/svg" xmlns:xlink="http://www.w3.org/1999/xlink" x="0px" y="0px"
	 width="229.839px" height="173.991px" viewBox="0 0 229.839 173.991" enable-background="new 0 0 229.839 173.991"
	 xml:space="preserve">
<rect x="0" y="0" fill="#F8B361" width="229.84" height="173.991"/>
<g>
	<path fill="#F79520" d="M148.423,76.319c13.775,4.006,27.646,6.033,41.335,6.033c13.302,0,26.747-1.931,40.081-5.715v-0.45
		c-13.356-1.506-26.811-2.274-40.109-2.274C176.031,73.912,162.17,74.721,148.423,76.319z"/>
	<path fill="#F79520" d="M188.825,54.787c12.503,0,29.665,2.105,41.014,3.607V19.928c-2.475-6.644-5.19-10.95-10.692-13.635
		c-2.093-1.021-4.002-1.539-5.676-1.539c-3.191,0-6.139,1.872-10.178,6.463c-3.252,3.695-7.782,5.649-13.101,5.649
		c-5.284,0-11.029-2.055-13.972-4.999c-0.542-0.542-1.131-1.221-1.779-1.982c-2.705-3.177-4.946-5.426-9.161-5.426
		c-8.874,0-13.072,7.826-15.031,14.392c-2.34,7.846-6.621,26.268-9.6,39.421C144.096,57.88,167.912,54.787,188.825,54.787z"/>
	<path fill="#F79520" d="M205.381,103.938c-5.411,0.623-10.794,0.939-15.996,0.939c-11.56,0-22.818-1.564-33.464-4.648
		c-3.413-0.989-6.76-2.287-9.999-3.542l-0.991-0.385c-0.931-0.359-1.785-0.798-2.655-1.27c-0.191-0.103-0.769,0.174-0.863,0.412
		c-4.243,10.755-3.79,12.023-4.025,17.298c0,0,0.208,1.158-0.769,1.903c-0.977,0.745-2.037-0.145-2.037-0.145
		c-0.696-0.393-1.356-0.755-1.987-1.103c-1.561-0.861-2.909-1.603-4.247-2.466c-0.931-0.602-2.165-0.398-3.61,0.284
		c-1.446,0.683-2.162,2.703-2.333,3.103c-0.601,1.41-0.898,2.616-0.878,3.583c0.07,6.861,3.947,10.158,3.947,10.158
		s5.224,5.043,8.1,6.957c0.647,0.431,1.38,0.87,2.194,1.288c1.312,0.674,2.668,1.371,3.695,2.562
		c1.112,1.291,1.653,2.875,2.176,4.406c0.261,0.76,0.505,1.479,0.808,2.126c5.647,12.053,13.413,20.863,23.744,26.933
		c1.016,0.597,2.044,1.144,3.08,1.659h41.075c4.989-2.476,9.682-5.891,14.036-10.245c1.965-1.965,3.774-4.084,5.459-6.32V98.131
		C222.345,100.977,214.119,102.933,205.381,103.938z M152.225,117.334c-0.039-2.828,1.245-5.842,3.437-8.063
		c2.187-2.218,5.052-3.44,8.066-3.44l0.344,0.005c6.413,0.194,11.411,5.3,11.379,11.623c-0.031,6.398-5.241,11.605-11.617,11.605
		h-0.057C157.494,129.034,152.313,123.772,152.225,117.334z M218.175,158.72c-3.788,2.35-7.155,4.46-11.231,4.46
		c-2.212,0-4.478-0.353-6.739-1.05c-3.323-1.025-6.763-1.545-10.223-1.545c-3.656,0-7.364,0.55-11.334,1.683
		c-2.171,0.62-4.323,0.933-6.397,0.933c-5.847,0-10.008-4.022-14.722-8.835c-0.276-0.28-0.387-0.582-0.467-0.803
		c-0.025-0.067,0.156-0.312,0.111-0.416l0.568-0.158c0.477,0.074,0.522,0.023,0.994,0.023c2.869,0,5.319-1.353,7.913-2.786
		c0.508-0.28,1.015-0.56,1.524-0.829c4.053-2.144,8.096-4.305,12.14-6.466l1.266-0.676c0.54-0.288,1.054-0.429,1.573-0.429
		c1.114,0,1.903,0.654,2.4,1.147c1.194,1.183,2.688,1.835,4.203,1.835c1.498,0,2.918-0.608,4.104-1.758
		c0.533-0.516,1.377-1.203,2.543-1.203c0.552,0,1.102,0.151,1.68,0.461c4.328,2.321,8.661,4.633,12.997,6.943
		c0.463,0.246,0.923,0.499,1.385,0.752c1.217,0.665,2.366,1.294,3.566,1.834c1.711,0.768,3.162,1.28,4.682,1.28
		c0.453,0,0.889-0.046,1.332-0.139l0.865,1.298C221.703,156.036,220.155,157.491,218.175,158.72z M215.567,129.064l-0.119-0.001
		c-6.462-0.067-11.481-5.252-11.428-11.804c0.051-6.358,5.126-11.383,11.553-11.44h0.002c3.154,0,6.051,1.257,8.26,3.537
		c2.213,2.287,3.481,5.347,3.388,8.185C227.016,123.895,221.786,129.064,215.567,129.064z"/>
	<path fill="#F79520" d="M141.381,166.85c-4.612-5.755-8.375-12.136-11.183-18.966c-0.091-0.222-0.378-0.696-1.271-1.375
		c-1.107-0.841-2.244-1.645-3.382-2.449c-1.91-1.351-3.887-2.748-5.712-4.32c-7.807-6.722-11.317-15.189-10.43-25.163
		c0.005-0.139-0.134-0.539-0.355-0.81c-0.87-1.072-1.776-2.112-2.681-3.153c-1.151-1.321-2.339-2.687-3.445-4.109
		c-8.695-11.171-17.295-23.529-21.325-38.18c-0.701-2.542-0.556-5.128-0.311-6.85c0.417-2.923,3.173-4.811,7.024-4.811
		c0.36,0,0.729,0.016,1.104,0.05c4.98,0.442,9.565,2.146,13.998,3.792c1.273,0.473,2.547,0.947,3.828,1.389
		c3.32,1.147,6.605,2.498,9.783,3.805c1.68,0.691,3.36,1.381,5.051,2.045c1.159,0.454,2.335,0.859,3.592,1.292
		c0.057,0.02,0.112,0.039,0.169,0.059l0.212-0.907c0.424-1.82,0.833-3.574,1.271-5.319l1.768-7.057
		c0.341-1.361,0.694-2.76,1.038-4.135c2.922-12.805,6.676-28.743,8.893-36.178C140.944,9.034,143.93,3.811,147.74,0H0v173.991
		h148.017C145.641,171.773,143.419,169.391,141.381,166.85z"/>
	<path fill="#F79520" d="M190.192,5.142c2.83,0,3.936-1.257,4.299-1.67c1.008-1.145,2.117-2.329,3.331-3.472h-16.484
		c0.785,0.827,1.459,1.614,2.029,2.284c0.421,0.495,0.793,0.945,1.144,1.295C185.019,4,187.478,5.142,190.192,5.142z"/>
</g>
</svg>
