<?xml version="1.0" encoding="utf-8"?>
<!-- Generator: Adobe Illustrator 17.0.0, SVG Export Plug-In . SVG Version: 6.00 Build 0)  -->
<!DOCTYPE svg PUBLIC "-//W3C//DTD SVG 1.1//EN" "http://www.w3.org/Graphics/SVG/1.1/DTD/svg11.dtd">
<svg version="1.1" id="Layer_1" xmlns="http://www.w3.org/2000/svg" xmlns:xlink="http://www.w3.org/1999/xlink" x="0px" y="0px"
	 width="229.839px" height="173.991px" viewBox="0 0 229.839 173.991" enable-background="new 0 0 229.839 173.991"
	 xml:space="preserve">
<rect x="0" y="0" fill="#75CEDE" width="229.84" height="173.991"/>
<path fill="#A5DBDC" d="M199.849,173.991h17.164c5.005-6.062,9.208-12.689,12.826-19.729v-34.194
	c-3.178,0.003-6.24,0.015-9.294-0.036c-0.311-0.005-0.805-0.448-0.891-0.773c-1.091-4.117-2.148-8.244-3.127-12.389
	c-0.087-0.368,0.332-1.007,0.694-1.308c5.585-4.645,7.71-10.49,5.908-17.553c-1.278-5.009-4.423-8.608-9.148-10.735
	c-0.943-0.424-1.303-0.889-1.296-1.956c0.055-7.782,0.018-15.565,0.067-23.348c0.004-0.613,0.257-1.438,0.695-1.8
	c3.502-2.898,7.075-5.71,10.63-8.544c0.141-0.113,0.313-0.188,0.738-0.439c2.002,4.162,3.663,8.345,5.026,12.547v-25.61
	c-1.24-1.839-2.54-3.647-3.954-5.397c-8.022-9.932-17.918-17.342-29.981-21.528c-1.275-0.442-2.55-0.833-3.825-1.199h-36.305
	c-2.112,0.619-4.221,1.336-6.326,2.175c-12.323,4.909-22.113,13.03-29.891,23.678c-5.865,8.029-9.98,16.919-12.841,26.407
	c-0.293,0.973-0.706,1.356-1.752,1.328c-2.718-0.072-5.439-0.026-8.159-0.021c-9.979,0.015-17.636,7.699-17.483,17.687
	c0.162,10.596,0.02,21.196,0.042,31.794c0.018,8.707,6.374,15.881,15.042,16.77c3.252,0.333,6.553,0.234,9.832,0.225
	c1.085-0.003,1.545,0.304,1.798,1.39c2.106,9.052,5.028,17.84,8.833,26.319c4.243,9.454,9.358,18.323,15.892,26.24h17.26
	c-1.176-1.065-1.789-2.691-1.794-4.894c-0.011-5.197-0.003-10.394-0.003-15.736c18.546,0,36.858,0,55.137,0
	c0.086,0.129,0.177,0.203,0.177,0.277c0.016,5.53,0.107,11.061,0.004,16.589C201.515,171.767,200.881,173.069,199.849,173.991z
	 M103.548,108.74c-2.988,0-5.862,0.295-8.643-0.083c-2.791-0.379-4.472-2.826-4.477-5.672c-0.021-10.774-0.024-21.548,0-32.322
	c0.008-3.436,2.507-5.951,5.917-6.012c2.382-0.043,4.766-0.008,7.386-0.008C101.261,79.406,101.346,94.072,103.548,108.74z
	 M212.72,137.013c0.01-3.576,2.329-5.875,5.893-5.896c2.896-0.017,5.792-0.003,8.921-0.003
	c-3.683,10.715-8.252,20.661-14.674,29.983c-0.066-0.526-0.142-0.853-0.142-1.181C212.711,152.281,212.699,144.647,212.72,137.013z
	 M212.698,92.406c-0.032,3.003-2.606,5.506-5.622,5.468c-2.983-0.037-5.52-2.67-5.445-5.65c0.075-2.988,2.548-5.388,5.542-5.38
	C210.184,86.852,212.73,89.415,212.698,92.406z M122.995,41.25c0.414,0.228,0.708,0.34,0.943,0.526
	c3.451,2.738,6.915,5.462,10.315,8.262c0.456,0.375,0.821,1.149,0.825,1.741c0.054,7.923,0.019,15.847,0.059,23.77
	c0.005,0.911-0.345,1.285-1.12,1.641c-11.702,5.381-13.457,20.474-3.342,28.435c0.336,0.264,0.719,0.862,0.639,1.199
	c-1.042,4.368-2.164,8.717-3.298,13.195c-3.693,0-7.248,0-11.008,0C111.052,93.184,110.698,66.826,122.995,41.25z M135.093,160.604
	c0,0.078-0.069,0.156-0.182,0.398c-6.382-9.204-10.962-19.163-14.611-29.846c3.438,0,6.628-0.11,9.806,0.034
	c2.643,0.12,4.935,2.456,4.96,5.079C135.143,144.381,135.097,152.493,135.093,160.604z M135.13,92.425
	c-0.044-3.014,2.46-5.559,5.493-5.581c3.026-0.022,5.576,2.494,5.575,5.502c0,2.96-2.464,5.477-5.413,5.529
	C137.792,97.927,135.174,95.404,135.13,92.425z M168.249,142.133c-7.318,0-14.563,0-22.024,0c0-1.296-0.031-2.544,0.005-3.789
	c0.181-6.151-1.823-11.293-6.833-15.104c-0.295-0.224-0.477-0.895-0.386-1.28c0.936-3.963,1.966-7.904,2.904-11.867
	c0.233-0.985,0.752-1.348,1.706-1.493c6.466-0.984,11.874-6.238,13.31-12.868c1.396-6.446-1.469-13.52-6.918-17.074
	c-0.51-0.333-0.99-0.812-1.551-0.947c-2.078-0.499-2.317-1.86-2.281-3.748c0.12-6.233,0.054-12.47,0.059-18.706
	c0-0.501,0-1.002,0-1.597c7.42,0,14.664,0,22.009,0C168.249,83.144,168.249,112.599,168.249,142.133z M144.125,42.495
	c-1.105,0.002-1.938-0.312-2.787-1.007c-3.662-2.997-7.378-5.928-11.072-8.886c-0.362-0.29-0.702-0.607-1.11-0.963
	c22.725-31.543,68.378-30.144,89.508,0.066c-2.91,2.336-6.02,4.479-8.696,7.071c-3.125,3.027-6.582,3.841-10.861,3.79
	C180.783,42.349,162.453,42.466,144.125,42.495z M179.567,142.136c0-29.492,0-58.91,0-88.449c7.312,0,14.585,0,21.945,0
	c0.032,0.456,0.086,0.865,0.086,1.274c0.005,6.798-0.017,13.596,0.027,20.393c0.006,0.991-0.32,1.47-1.217,1.882
	c-11.423,5.245-13.327,20.17-3.572,28.089c2.131,1.73,4.577,2.94,7.351,3.269c1.05,0.125,1.524,0.614,1.761,1.614
	c0.925,3.918,1.934,7.816,2.84,11.738c0.095,0.41-0.146,1.116-0.475,1.372c-4.72,3.68-6.823,8.545-6.714,14.456
	c0.026,1.399,0.004,2.799,0.004,4.361C194.146,142.136,186.902,142.136,179.567,142.136z"/>
</svg>
