<?xml version="1.0" encoding="utf-8"?>
<!-- Generator: Adobe Illustrator 17.0.0, SVG Export Plug-In . SVG Version: 6.00 Build 0)  -->
<!DOCTYPE svg PUBLIC "-//W3C//DTD SVG 1.1//EN" "http://www.w3.org/Graphics/SVG/1.1/DTD/svg11.dtd">
<svg version="1.1" id="Layer_1" xmlns="http://www.w3.org/2000/svg" xmlns:xlink="http://www.w3.org/1999/xlink" x="0px" y="0px"
	 width="258.95px" height="258.95px" viewBox="0 0 258.95 258.95" enable-background="new 0 0 258.95 258.95" xml:space="preserve">
<rect x="0" y="0" fill="#75CEDE" width="258.95" height="258.95"/>
<path fill="#A5DBDC" d="M129.322,219.665c-7.831,0-15.663-0.027-23.494,0.01c-4.995,0.023-9.188-1.739-12.775-5.209
	c-9.926-9.603-17.056-21.083-22.665-33.583c-3.805-8.479-6.727-17.267-8.833-26.319c-0.253-1.086-0.713-1.393-1.798-1.39
	c-3.278,0.009-6.58,0.108-9.832-0.225c-8.667-0.888-15.024-8.062-15.042-16.77c-0.022-10.598,0.121-21.198-0.042-31.794
	c-0.153-9.989,7.504-17.672,17.483-17.687c2.72-0.004,5.441-0.05,8.159,0.021c1.046,0.028,1.459-0.355,1.752-1.328
	c2.861-9.488,6.976-18.378,12.841-26.407c7.777-10.648,17.568-18.769,29.891-23.678c15.36-6.119,30.911-6.37,46.456-0.976
	c12.063,4.186,21.959,11.596,29.981,21.528c7.078,8.764,11.919,18.679,15.185,29.4c0.33,1.084,0.781,1.449,1.936,1.455
	c3.887,0.02,7.826-0.177,11.646,0.381c6.299,0.922,10.639,4.692,12.729,10.714c0.72,2.076,1.017,4.391,1.039,6.602
	c0.104,10.503,0.049,21.008,0.045,31.512c-0.002,5.757-2.182,10.462-6.8,13.97c-3.028,2.3-6.513,3.226-10.252,3.297
	c-2.625,0.05-5.253,0.063-7.877-0.005c-1.032-0.027-1.456,0.285-1.697,1.319c-2.503,10.759-6.143,21.122-11.042,31.027
	c-5.294,10.704-11.869,20.499-20.466,28.877c-3.538,3.448-7.672,5.259-12.612,5.255C145.266,219.66,137.294,219.665,129.322,219.665
	z M84.675,64.771c0.408,0.355,0.748,0.673,1.11,0.963c3.693,2.959,7.41,5.889,11.072,8.886c0.849,0.695,1.682,1.008,2.787,1.007
	c18.328-0.029,36.657-0.146,54.983,0.072c4.279,0.051,7.736-0.764,10.861-3.79c2.676-2.592,5.785-4.735,8.696-7.071
	C153.053,34.627,107.4,33.228,84.675,64.771z M101.758,86.793c0,0.595,0,1.096,0,1.597c-0.005,6.235,0.062,12.472-0.059,18.706
	c-0.036,1.888,0.203,3.249,2.281,3.748c0.561,0.135,1.041,0.614,1.551,0.947c5.449,3.554,8.314,10.627,6.918,17.074
	c-1.436,6.63-6.844,11.883-13.31,12.868c-0.954,0.145-1.472,0.508-1.706,1.493c-0.938,3.963-1.968,7.904-2.904,11.867
	c-0.091,0.386,0.091,1.056,0.386,1.28c5.011,3.812,7.015,8.954,6.834,15.104c-0.037,1.245-0.005,2.493-0.005,3.789
	c7.461,0,14.706,0,22.024,0c0-29.534,0-58.99,0-88.472C116.422,86.793,109.178,86.793,101.758,86.793z M157.121,175.268
	c0-1.562,0.022-2.962-0.004-4.361c-0.109-5.912,1.995-10.776,6.714-14.456c0.329-0.256,0.569-0.962,0.475-1.372
	c-0.905-3.922-1.914-7.82-2.84-11.738c-0.236-1-0.711-1.489-1.761-1.614c-2.774-0.329-5.22-1.539-7.351-3.269
	c-9.755-7.92-7.851-22.844,3.572-28.089c0.897-0.412,1.223-0.891,1.217-1.882c-0.043-6.798-0.021-13.595-0.027-20.393
	c0-0.409-0.054-0.818-0.086-1.274c-7.36,0-14.634,0-21.945,0c0,29.54,0,58.957,0,88.449
	C142.42,175.268,149.664,175.268,157.121,175.268z M101.743,186.492c0,5.342-0.008,10.539,0.003,15.736
	c0.009,4.218,2.193,6.375,6.448,6.376c11.11,0.004,22.22,0.002,33.33,0.001c3.281,0,6.564,0.039,9.844-0.015
	c3.213-0.053,5.637-2.179,5.694-5.233c0.103-5.528,0.013-11.059-0.004-16.589c0-0.074-0.092-0.148-0.177-0.277
	C138.601,186.492,120.289,186.492,101.743,186.492z M180.332,74.319c-0.425,0.251-0.596,0.326-0.738,0.439
	c-3.555,2.834-7.128,5.646-10.63,8.544c-0.438,0.363-0.691,1.187-0.695,1.8c-0.049,7.782-0.012,15.565-0.067,23.348
	c-0.008,1.067,0.353,1.532,1.296,1.956c4.726,2.126,7.871,5.726,9.148,10.735c1.802,7.063-0.323,12.908-5.908,17.553
	c-0.361,0.3-0.781,0.939-0.694,1.308c0.978,4.145,2.036,8.272,3.127,12.389c0.086,0.325,0.58,0.768,0.891,0.773
	c3.37,0.056,6.741,0.035,10.277,0.035C192.281,126.291,192.647,99.924,180.332,74.319z M83.535,153.153
	c1.134-4.478,2.256-8.827,3.298-13.195c0.08-0.337-0.304-0.935-0.639-1.199c-10.115-7.961-8.36-23.054,3.342-28.435
	c0.775-0.356,1.124-0.73,1.12-1.641c-0.04-7.923-0.005-15.847-0.059-23.77c-0.004-0.592-0.369-1.365-0.825-1.741
	c-3.4-2.8-6.864-5.524-10.315-8.262c-0.235-0.186-0.529-0.298-0.943-0.526c-12.297,25.576-11.944,51.934-5.986,78.771
	C76.287,153.153,79.842,153.153,83.535,153.153z M199.587,97.82c2.559,14.791,2.367,29.437,0.186,44.262
	c2.369,0,4.514,0.004,6.66-0.001c4.319-0.009,6.489-2.169,6.493-6.479c0.006-7.549,0.002-15.099,0.001-22.648
	c0-3.142,0.039-6.284-0.015-9.425c-0.053-3.078-2.117-5.518-4.963-5.677C205.245,97.702,202.526,97.82,199.587,97.82z
	 M59.066,141.872c-2.202-14.668-2.287-29.334,0.182-44.097c-2.62,0-5.004-0.034-7.386,0.008c-3.409,0.061-5.909,2.576-5.916,6.012
	c-0.024,10.774-0.021,21.548,0,32.322c0.006,2.845,1.687,5.292,4.477,5.671C53.204,142.168,56.078,141.872,59.066,141.872z
	 M75.819,164.288c3.649,10.683,8.228,20.643,14.611,29.846c0.113-0.242,0.182-0.32,0.182-0.398
	c0.003-8.112,0.05-16.224-0.027-24.335c-0.025-2.623-2.317-4.959-4.96-5.079C82.447,164.178,79.257,164.288,75.819,164.288z
	 M183.052,164.245c-3.129,0-6.025-0.013-8.921,0.003c-3.565,0.021-5.884,2.32-5.893,5.896c-0.021,7.634-0.008,15.268-0.002,22.903
	c0,0.328,0.077,0.655,0.142,1.181C174.8,184.906,179.369,174.96,183.052,164.245z M96.141,119.976
	c-3.032,0.022-5.537,2.567-5.493,5.581c0.043,2.979,2.662,5.502,5.655,5.45c2.949-0.052,5.413-2.569,5.413-5.529
	C101.717,122.47,99.166,119.954,96.141,119.976z M168.216,125.538c0.032-2.992-2.514-5.554-5.526-5.562
	c-2.994-0.008-5.467,2.393-5.542,5.38c-0.075,2.98,2.462,5.613,5.445,5.65C165.61,131.045,168.183,128.542,168.216,125.538z"/>
</svg>
